<svg width="32" height="32" viewBox="0 0 32 32" fill="none" xmlns="http://www.w3.org/2000/svg">
<path d="M4.63273 18.181V18.1447V17.4428V17.3223L4.65514 17.3152C4.65601 17.3065 4.65688 17.2977 4.65776 17.2888C4.66559 17.21 4.67401 17.1252 4.68655 17.0451L4.63273 18.181ZM4.63273 18.181L4.64803 18.2139M4.63273 18.181L4.64803 18.2139M4.64803 18.2139C4.65197 18.2223 4.65572 18.236 4.65808 18.2647C4.65908 18.2769 4.65967 18.289 4.6604 18.3042C4.66056 18.3074 4.66072 18.3108 4.6609 18.3144C4.66183 18.3331 4.66309 18.356 4.66582 18.3799L4.66595 18.3809C4.78061 19.3253 5.13183 20.1753 5.7308 20.9159C6.52567 21.8987 7.55318 22.4991 8.79667 22.7195L8.79674 22.7195C8.91428 22.7403 9.03191 22.7537 9.14604 22.7652L4.64803 18.2139ZM13.7036 8.12868L13.7036 8.12867C13.7269 8.12594 13.7494 8.12442 13.7684 8.12322C13.7715 8.12302 13.7745 8.12283 13.7774 8.12265C13.7934 8.12165 13.8066 8.12082 13.8198 8.1196C13.8504 8.11677 13.8685 8.11272 13.8819 8.10717L13.9121 8.09464H13.9448H14.6699H14.781L14.7889 8.11437C14.8936 8.12479 15.0028 8.13679 15.1117 8.15609L15.112 8.15614C16.6906 8.43897 17.8847 9.2802 18.6833 10.6719C18.7534 10.7939 18.8136 10.9195 18.8696 11.0437C19.3483 10.9428 19.833 10.9302 20.3175 11.0215C21.4418 11.2327 22.3102 11.8304 22.9151 12.7968C23.2501 12.7762 23.5863 12.7922 23.9179 12.8444C25.051 13.0224 26.0204 13.5265 26.8077 14.3637C27.5572 15.1606 27.9956 16.1094 28.1302 17.1952C28.1336 17.2222 28.136 17.2593 28.1377 17.2869C28.1385 17.2993 28.1392 17.3097 28.1398 17.3164C28.1426 17.3488 28.1466 17.3685 28.1525 17.3835L28.1639 17.4125V17.4436V18.1212V18.231L28.1438 18.2393C28.1429 18.249 28.142 18.2589 28.141 18.2691C28.1358 18.3261 28.13 18.3883 28.1222 18.4443C27.9601 19.6061 27.4587 20.6012 26.6097 21.4113C25.8082 22.176 24.8501 22.6199 23.7521 22.7535L13.7036 8.12868ZM13.7036 8.12868C11.8508 8.34704 10.2348 9.64051 9.61275 11.4024C9.45347 11.8518 9.35828 12.3212 9.32984 12.7969C9.27057 12.801 9.21023 12.8055 9.15118 12.8114C8.01835 12.9242 7.02955 13.3686 6.20075 14.1511M13.7036 8.12868L6.20075 14.1511M18.7529 12.2451L18.7529 12.2451C18.5917 12.302 18.427 12.3046 18.2826 12.2347C18.1381 12.1646 18.0384 12.0336 17.9842 11.8715C17.4154 10.1804 15.8077 9.09704 14.0349 9.23437L14.0349 9.23437C12.7426 9.33433 11.7458 9.94899 11.0415 11.0396C10.6033 11.7183 10.4165 12.4714 10.4548 13.2847L10.4548 13.2848C10.4636 13.471 10.4147 13.642 10.2917 13.7634C10.169 13.8845 9.99772 13.9314 9.81318 13.9219L9.8122 13.9219C9.63358 13.9116 9.45445 13.9149 9.27632 13.9316C8.32142 14.0272 7.50871 14.4138 6.84442 15.1042L6.8444 15.1042C6.16842 15.8065 5.80261 16.6472 5.76504 17.6199L5.76504 17.6199C5.72054 18.7697 6.11156 19.7538 6.9332 20.5585C7.67607 21.2859 8.57403 21.6536 9.6136 21.6566C11.2185 21.661 12.8234 21.6601 14.4286 21.6592C15.0852 21.6589 15.7418 21.6585 16.3985 21.6585H16.5627V21.659H23.2086C23.3778 21.659 23.5468 21.6465 23.7142 21.6217M18.7529 12.2451L23.7383 21.784M18.7529 12.2451C19.3781 12.0245 20.0625 12.0418 20.6757 12.2936C21.289 12.5454 21.7885 13.0142 22.0791 13.6108M18.7529 12.2451L26.9732 17.0929M23.7142 21.6217L23.7383 21.784M23.7142 21.6217C23.7142 21.6217 23.7142 21.6217 23.7142 21.6217L23.7383 21.784M23.7142 21.6217C24.6022 21.4898 25.3627 21.1106 25.9716 20.4575M23.7383 21.784C24.6605 21.6471 25.4557 21.2516 26.0917 20.5694M25.9716 20.4575L26.0917 20.5694M25.9716 20.4575C26.8599 19.5043 27.1892 18.3773 26.9732 17.0929M25.9716 20.4575C25.9717 20.4575 25.9717 20.4575 25.9717 20.4575L26.0917 20.5694M26.0917 20.5694L26.9732 17.0929M26.9732 17.0929C26.9732 17.0929 26.9732 17.093 26.9732 17.093L27.135 17.0657L26.9732 17.0929ZM26.9732 17.0929C26.8343 16.2701 26.4501 15.5668 25.8417 14.9938C24.9579 14.1617 23.9103 13.8178 22.7021 13.9458C22.5725 13.9595 22.4467 13.9454 22.3342 13.8866C22.2207 13.8272 22.1377 13.7311 22.0791 13.6108M22.0791 13.6108L22.225 13.5398L22.0791 13.6108C22.0791 13.6108 22.0791 13.6108 22.0791 13.6108ZM6.20075 14.1511C5.3651 14.9398 4.86412 15.9112 4.68655 17.0451L6.20075 14.1511Z" fill="white" stroke="white" stroke-width="0.328296"/>
<path d="M15.6115 17.9619C15.616 17.9619 15.6204 17.9619 15.6248 17.9619L15.6115 17.9619ZM15.6115 17.9619V18.6209C15.6115 18.7287 15.6116 18.8366 15.6117 18.9444C15.6119 19.1602 15.612 19.3761 15.6115 19.5919C15.6115 19.7716 15.5386 19.9151 15.3861 19.9926L15.6115 17.9619ZM14.8501 15.2435L14.8501 15.2434C14.8813 15.0474 15.0324 14.8891 15.2215 14.8886L15.2215 14.8886C15.3305 14.8883 15.4396 14.8879 15.5487 14.8874C15.9076 14.886 16.267 14.8845 16.6264 14.8893C17.4587 14.9004 18.0687 15.7213 17.9599 16.6382C17.9599 16.6382 17.9599 16.6382 17.9599 16.6382L14.8501 15.2435ZM14.8501 15.2435C14.8421 15.2943 14.8433 15.3464 14.8443 15.3929C14.8446 15.4076 14.8449 15.4218 14.8449 15.4352V15.443V15.4509V15.4588V15.4667V15.4746V15.4825V15.4904V15.4983V15.5061V15.514V15.5219V15.5298V15.5377V15.5456V15.5535V15.5614V15.5692V15.5771V15.585V15.5929V15.6008V15.6087V15.6166V15.6245V15.6324V15.6402V15.6481V15.656V15.6639V15.6718V15.6797V15.6876V15.6955V15.7033V15.7112V15.7191V15.727V15.7349V15.7428V15.7507V15.7586V15.7664V15.7743V15.7822V15.7901V15.798V15.8059V15.8138V15.8217V15.8295V15.8374V15.8453V15.8532V15.8611V15.869V15.8769V15.8848V15.8927V15.9005V15.9084V15.9163V15.9242V15.9321V15.94V15.9479V15.9558V15.9636V15.9715V15.9794V15.9873V15.9952V16.0031V16.011V16.0189V16.0267V16.0346V16.0425V16.0504V16.0583V16.0662V16.0741V16.082V16.0898V16.0977V16.1056V16.1135V16.1214V16.1293V16.1372V16.1451V16.153V16.1608V16.1687V16.1766V16.1845V16.1924V16.2003V16.2082V16.2161V16.2239V16.2318V16.2397V16.2476V16.2555V16.2634V16.2713V16.2792V16.287V16.2949V16.3028V16.3107V16.3186V16.3265V16.3344V16.3423V16.3501V16.358V16.3659V16.3738V16.3817V16.3896V16.3975V16.4054V16.4132V16.4211V16.429V16.4369V16.4448V16.4527V16.4606V16.4685V16.4764V16.4842V16.4921V16.5V16.5079V16.5158V16.5237V16.5316V16.5395V16.5473V16.5552V16.5631V16.571V16.5789V16.5868V16.5947V16.6026V16.6104V16.6183V16.6262V16.6341V16.642V16.6499V16.6578V16.6657V16.6735V16.6814V16.6893V16.6972V16.7051V16.713V16.7209V16.7288V16.7366V16.7445V16.7524V16.7603V16.7682V16.7761V16.784V16.7919V16.7997V16.8076V16.8155V16.8234V16.8313V16.8392V16.8471V16.855V16.8629V16.8707V16.8786V16.8865V16.8944V16.9023V16.9102V16.9181V16.926V16.9338V16.9417V16.9496V16.9575V16.9654V16.9733V16.9812V16.9891V16.9969V17.0048V17.0127V17.0206V17.0285V17.0364V17.0443V17.0522V17.06V17.0679V17.0758V17.0837V17.0916V17.0995V17.1074V17.1153V17.1231V17.131V17.1389V17.1468V17.1547V17.1626V17.1705V17.1784V17.1862V17.1941V17.202V17.2099V17.2178V17.2257V17.2336V17.2415V17.2494V17.2572V17.2651V17.273V17.2809V17.2888V17.2967V17.3046V17.3125V17.3203V17.3282V17.3361V17.344V17.3519V17.3598V17.3677V17.3756V17.3834V17.3913V17.3992V17.4071V17.415V17.4229V17.4308V17.4387V17.4465V17.4544V17.4623V17.4702V17.4781V17.486V17.4939V17.5018V17.5096V17.5175V17.5254V17.5333V17.5412V17.5491V17.557V17.5649V17.5727V17.5806V17.5885V17.5964V17.6043V17.6122V17.6201V17.628V17.6358V17.6437V17.6516V17.6595V17.6674V17.6753V17.6832V17.6911V17.6989V17.7068V17.7147V17.7226V17.7305V17.7384V17.7463V17.7542V17.762V17.7699V17.7778V17.7857V17.7936V17.8015V17.8094V17.8173V17.8252V17.833V17.8409V17.8488V17.8567V17.8646V17.8725V17.8804V17.8883V17.8961V17.904V17.9119V17.9198V17.9277V17.9356V17.9435V17.9514V17.9592V17.9671V17.975V17.9829V17.9908V17.9987V18.0066V18.0145V18.0223V18.0302V18.0381V18.046V18.0539V18.0618V18.0697V18.0776V18.0854V18.0933V18.1012V18.1091V18.117V18.1249V18.1328V18.1407V18.1485V18.1564V18.1643V18.1722V18.1801V18.188V18.1959V18.2038V18.2116V18.2195V18.2274V18.2353V18.2432V18.2511V18.259V18.2669V18.2747V18.2826V18.2905V18.2984V18.3063V18.3142V18.3221V18.33V18.3378V18.3457V18.3536V18.3615V18.3694V18.3773V18.3852V18.3931V18.4009V18.4088V18.4167V18.4246V18.4325V18.4404V18.4483V18.4562V18.464V18.4719V18.4798V18.4877V18.4956V18.5035V18.5114V18.5193V18.5271V18.535V18.5429V18.5508V18.5587V18.5666V18.5745V18.5824V18.5902V18.5981V18.606V18.6139V18.6218V18.6297V18.6376V18.6455V18.6533V18.6612V18.6691V18.677V18.6849V18.6928V18.7007V18.7086V18.7164V18.7243V18.7322V18.7401V18.748V18.7559V18.7638V18.7717V18.7795V18.7874V18.7953V18.8032V18.8111V18.819V18.8269V18.8348V18.8426V18.8505V18.8584V18.8663V18.8742V18.8821V18.89V18.8979V18.9057V18.9136V18.9215V18.9294V18.9373V18.9452V18.9531V18.961V18.9688V18.9767V18.9846V18.9925V19.0004V19.0083V19.0162V19.0241V19.0319V19.0398V19.0477V19.0556V19.0635V19.0714V19.0793V19.0872V19.095V19.1029V19.1108V19.1187V19.1266V19.1345V19.1424V19.1503V19.1581V19.166V19.1739V19.1818V19.1897V19.1976V19.2055V19.2134V19.2212V19.2291V19.237V19.2449V19.2528V19.2607V19.2686V19.2765V19.2843V19.2922V19.3001V19.308V19.3159V19.3238V19.3317V19.3396V19.3474V19.3553V19.3632V19.3711V19.379V19.3869V19.3948V19.4027V19.4105V19.4184V19.4263V19.4342V19.4421V19.45V19.4579V19.4658V19.4736C14.8449 19.4875 14.8448 19.5018 14.8447 19.5163C14.8444 19.5461 14.8442 19.5768 14.8449 19.6068M14.8501 15.2435L14.971 19.9204C14.8857 19.837 14.8472 19.7278 14.8449 19.6068M14.8449 19.6068L14.8949 19.6058L14.8449 19.6069C14.8449 19.6069 14.8449 19.6068 14.8449 19.6068ZM16.1314 17.9623C16.3274 17.9649 16.5261 17.9676 16.722 17.953L16.1314 17.9623ZM16.6735 17.0971C16.6734 17.0971 16.673 17.0972 16.6722 17.0972L16.6685 17.0975L16.6563 17.098L16.6168 17.099C16.5844 17.0996 16.5409 17.1002 16.4899 17.1007C16.388 17.1016 16.2566 17.1023 16.1248 17.1025C15.9931 17.1028 15.8611 17.1027 15.758 17.1021C15.6968 17.1017 15.6472 17.1012 15.6138 17.1005L15.6136 15.7483C15.72 15.7483 15.8264 15.7481 15.9328 15.748C16.1549 15.7476 16.3768 15.7472 16.5989 15.7483C16.9467 15.75 17.2193 16.0597 17.2037 16.4579C17.1966 16.6214 17.138 16.7756 17.0401 16.8927C16.9422 17.0096 16.8119 17.0814 16.6735 17.0971L16.6735 17.0971Z" fill="white" stroke="white" stroke-width="0.1"/>
<path d="M11.2245 18.1976L11.1764 18.1839C11.4596 17.1853 11.743 16.1868 12.0266 15.1882L12.0738 15.2016L12.0266 15.1882C12.0784 15.0059 12.1962 14.8863 12.3595 14.886L11.2245 18.1976ZM11.2245 18.1976C11.5077 17.199 11.7911 16.2004 12.0747 15.2018C12.1229 15.0323 12.2265 14.9363 12.3596 14.936C12.4927 14.9358 12.5966 15.0315 12.6449 15.2014M11.2245 18.1976L13.8042 19.8507C13.8499 19.7815 13.8749 19.6932 13.8747 19.602C13.875 19.5526 13.8677 19.5037 13.8534 19.4579M12.6449 15.2014C13.0478 16.6199 13.4507 18.0388 13.8534 19.4579M12.6449 15.2014L12.693 15.1877L12.693 15.1877L12.6449 15.2014ZM13.8534 19.4579L13.9015 19.4443C13.9014 19.4441 13.9013 19.4438 13.9013 19.4436C13.9012 19.4434 13.9011 19.4432 13.9011 19.4429L13.8534 19.4579ZM13.6362 20.0284C13.7208 20.0114 13.7945 19.9564 13.846 19.8782C13.8975 19.8001 13.9248 19.7022 13.9247 19.6023C13.9247 19.6022 13.9247 19.6021 13.9247 19.6019L13.6362 20.0284ZM13.6362 20.0284C13.4668 20.0654 13.313 19.932 13.2593 19.7448L13.2593 19.7447C13.1962 19.5244 13.1338 19.3037 13.0713 19.0831C13.0478 19.0001 13.0243 18.917 13.0008 18.834L13.0008 18.834C12.9871 18.7856 12.9733 18.7372 12.9594 18.6887C12.9257 18.5702 12.8918 18.4515 12.8591 18.3321L12.8591 18.3321C12.8576 18.3269 12.8564 18.3233 12.8554 18.3209C12.8548 18.3208 12.8542 18.3208 12.8535 18.3208M13.6362 20.0284L12.8535 18.3208C12.8535 18.3208 12.8535 18.3208 12.8535 18.3208M12.8535 18.3208C12.5245 18.3224 12.1954 18.3224 11.8664 18.3208L11.8664 18.3183M12.8535 18.3208L11.8666 18.318M11.8664 18.3183C11.8665 18.3182 11.8666 18.318 11.8666 18.318M11.8664 18.3183C11.8661 18.3188 11.8657 18.3196 11.8651 18.3209M11.8664 18.3183L11.8664 18.3182M11.8666 18.318V18.3208C11.8661 18.3208 11.8656 18.3208 11.8651 18.3209M11.8666 18.318V18.318M11.8666 18.318C11.8667 18.3179 11.8667 18.3179 11.8667 18.3179C11.8667 18.3179 11.8667 18.3179 11.8666 18.318M11.8651 18.3209C11.8628 18.3209 11.8618 18.3212 11.8618 18.3212C11.8618 18.3212 11.8619 18.3212 11.8621 18.3211C11.8635 18.3206 11.8651 18.3195 11.8663 18.3183C11.8664 18.3183 11.8664 18.3182 11.8664 18.3182M11.8651 18.3209L11.8664 18.3182M11.8664 18.3182C11.8665 18.3181 11.8666 18.318 11.8666 18.318M12.6105 17.4587H12.1099C12.1744 17.2306 12.2391 17.0027 12.3048 16.7711C12.3232 16.7065 12.3416 16.6416 12.3602 16.5763L12.6105 17.4587Z" fill="white" stroke="white" stroke-width="0.1"/>
<path d="M21.9758 15.266L21.9759 15.266C21.9979 15.4882 21.8658 15.6859 21.6526 15.7354L21.6514 15.7357L21.6514 15.7357C21.6151 15.7432 21.578 15.7467 21.5409 15.7461M21.9758 15.266L21.5413 15.6961M21.9758 15.266C21.9541 15.0481 21.7715 14.8866 21.5466 14.8866V14.9366L21.5466 14.8866C20.8025 14.8858 20.0585 14.8858 19.3146 14.8866M21.9758 15.266L19.3146 14.8866M21.5409 15.7461C21.5408 15.7461 21.5406 15.7461 21.5404 15.7461L21.5413 15.6961M21.5409 15.7461C21.5411 15.7461 21.5413 15.7461 21.5415 15.7461L21.5413 15.6961M21.5409 15.7461C21.394 15.7466 21.2469 15.7464 21.1 15.7462C21.0265 15.7462 20.953 15.7461 20.8796 15.7461H20.8703M21.5413 15.6961C21.3943 15.6966 21.2472 15.6964 21.1002 15.6962C21.0266 15.6962 20.9531 15.6961 20.8796 15.6961H20.8703V15.7461M20.8703 15.7461V19.1748C20.8729 19.1747 20.8756 19.1746 20.8783 19.1746H20.8797H20.881H20.8824H20.8838H20.8851H20.8865H20.8878H20.8892H20.8906H20.8919H20.8933H20.8946H20.896H20.8973H20.8987H20.9001H20.9014H20.9028H20.9041H20.9055H20.9068H20.9082H20.9096H20.9109H20.9123H20.9136H20.915H20.9164H20.9177H20.9191H20.9204H20.9218H20.9231H20.9245H20.9259H20.9272H20.9286H20.9299H20.9313H20.9326H20.934H20.9354H20.9367H20.9381H20.9394H20.9408H20.9421H20.9435H20.9449H20.9462H20.9476H20.9489H20.9503H20.9517H20.953H20.9544H20.9557H20.9571H20.9584H20.9598H20.9612H20.9625H20.9639H20.9652H20.9666H20.9679H20.9693H20.9707H20.972H20.9734H20.9747H20.9761H20.9775H20.9788H20.9802H20.9815H20.9829H20.9842H20.9856H20.987H20.9883H20.9897H20.991H20.9924H20.9937H20.9951H20.9965H20.9978H20.9992H21.0005H21.0019H21.0033H21.0046H21.006H21.0073H21.0087H21.01H21.0114H21.0128H21.0141H21.0155H21.0168H21.0182H21.0195H21.0209H21.0223H21.0236H21.025H21.0263H21.0277H21.0291H21.0304H21.0318H21.0331H21.0345H21.0358H21.0372H21.0386H21.0399H21.0413H21.0426H21.044H21.0453H21.0467H21.0481H21.0494H21.0508H21.0521H21.0535H21.0549H21.0562H21.0576H21.0589H21.0603H21.0616H21.063H21.0644H21.0657H21.0671H21.0684H21.0698H21.0712H21.0725H21.0739H21.0752H21.0766H21.0779H21.0793H21.0807H21.082H21.0834H21.0847H21.0861H21.0874H21.0888H21.0902H21.0915H21.0929H21.0942H21.0956H21.097H21.0983H21.0997H21.101H21.1024H21.1037H21.1051H21.1065H21.1078H21.1092H21.1105H21.1119H21.1133H21.1146H21.116H21.1173H21.1187H21.12H21.1214H21.1228H21.1241H21.1255H21.1268H21.1282H21.1295H21.1309H21.1323H21.1336H21.135H21.1363H21.1377H21.1391H21.1404H21.1418H21.1431H21.1445H21.1458H21.1472H21.1486H21.1499H21.1513H21.1526H21.154H21.1554H21.1567H21.1581H21.1594H21.1608H21.1621H21.1635H21.1649H21.1662H21.1676H21.1689H21.1703H21.1716H21.173H21.1744H21.1757H21.1771H21.1784H21.1798H21.1812H21.1825H21.1839H21.1852H21.1866H21.1879H21.1893H21.1907H21.192H21.1934H21.1947H21.1961H21.1975H21.1988H21.2002H21.2015H21.2029H21.2042H21.2056H21.207H21.2083H21.2097H21.211H21.2124H21.2138H21.2151H21.2165H21.2178H21.2192H21.2205H21.2219H21.2233H21.2246H21.226H21.2273H21.2287H21.2301H21.2314H21.2328H21.2341H21.2355H21.2368H21.2382H21.2396H21.2409H21.2423H21.2436H21.245H21.2463H21.2477H21.2491H21.2504H21.2518H21.2531H21.2545H21.2559H21.2572H21.2586H21.2599H21.2613H21.2626H21.264H21.2654H21.2667H21.2681H21.2694H21.2708H21.2722H21.2735H21.2749H21.2762H21.2776H21.2789H21.2803H21.2817H21.283H21.2844H21.2857H21.2871H21.2885H21.2898H21.2912H21.2925H21.2939H21.2952H21.2966H21.298H21.2993H21.3007H21.302H21.3034H21.3048H21.3061H21.3075H21.3088H21.3102H21.3115H21.3129H21.3143H21.3156H21.317H21.3183H21.3197H21.3211H21.3224H21.3238H21.3251H21.3265H21.3278H21.3292H21.3306H21.3319H21.3333H21.3346H21.336H21.3374H21.3387H21.3401H21.3414H21.3428H21.3441H21.3455H21.3469H21.3482H21.3496H21.3509H21.3523H21.3537H21.355H21.3564H21.3577H21.3591H21.3604H21.3618H21.3632H21.3645H21.3659H21.3672H21.3686H21.37H21.3713H21.3727H21.374H21.3754H21.3767H21.3781H21.3795H21.3808H21.3822H21.3835H21.3849H21.3863H21.3876H21.389H21.3903H21.3917H21.393H21.3944H21.3958H21.3971H21.3985H21.3998H21.4012H21.4026H21.4039H21.4053H21.4066H21.408H21.4093H21.4107H21.4121H21.4134H21.4148H21.4161H21.4175H21.4189H21.4202H21.4216H21.4229H21.4243H21.4256H21.427H21.4284H21.4297H21.4311H21.4324H21.4338H21.4352H21.4365H21.4379H21.4392H21.4406H21.4419H21.4433H21.4447H21.446H21.4474H21.4487H21.4501H21.4515H21.4528H21.4542H21.4555H21.4569H21.4582H21.4596H21.461H21.4623H21.4637H21.465H21.4664H21.4678H21.4691H21.4705H21.4718H21.4732H21.4745H21.4759H21.4773H21.4786H21.48H21.4813H21.4827H21.4841H21.4854H21.4868H21.4881H21.4895H21.4908H21.4922H21.4936H21.4949H21.4963H21.4976H21.499H21.5004H21.5017H21.5031H21.5044H21.5058H21.5071H21.5085H21.5099H21.5112H21.5126H21.5139H21.5153H21.5167H21.518H21.5194H21.5207H21.5221H21.5234H21.5248H21.5262H21.5275H21.5289H21.5302H21.5316H21.533H21.5343H21.5357H21.537H21.5384H21.5397H21.5411H21.5425H21.5438H21.5452H21.5465H21.5479H21.5493H21.5506H21.552H21.5533H21.5547H21.556H21.5574H21.5588H21.5601H21.5615H21.5628H21.5642H21.5656H21.5669H21.5683H21.5696H21.571H21.5723H21.5737C21.8225 19.1746 22.011 19.3597 22.0106 19.6053C22.0103 19.8512 21.8213 20.0344 21.5721 20.0344H21.5678H21.5634H21.559H21.5547H21.5503H21.5459H21.5415H21.5372H21.5328H21.5284H21.5241H21.5197H21.5153H21.511H21.5066H21.5022H21.4979H21.4935H21.4891H21.4847H21.4804H21.476H21.4716H21.4673H21.4629H21.4585H21.4542H21.4498H21.4454H21.4411H21.4367H21.4323H21.4279H21.4236H21.4192H21.4148H21.4105H21.4061H21.4017H21.3974H21.393H21.3886H21.3843H21.3799H21.3755H21.3711H21.3668H21.3624H21.358H21.3537H21.3493H21.3449H21.3406H21.3362H21.3318H21.3275H21.3231H21.3187H21.3143H21.31H21.3056H21.3012H21.2969H21.2925H21.2881H21.2838H21.2794H21.275H21.2706H21.2663H21.2619H21.2575H21.2532H21.2488H21.2444H21.2401H21.2357H21.2313H21.227H21.2226H21.2182H21.2138H21.2095H21.2051H21.2007H21.1964H21.192H21.1876H21.1833H21.1789H21.1745H21.1702H21.1658H21.1614H21.157H21.1527H21.1483H21.1439H21.1396H21.1352H21.1308H21.1265H21.1221H21.1177H21.1134H21.109H21.1046H21.1002H21.0959H21.0915H21.0871H21.0828H21.0784H21.074H21.0697H21.0653H21.0609H21.0566H21.0522H21.0478H21.0434H21.0391H21.0347H21.0303H21.026H21.0216H21.0172H21.0129H21.0085H21.0041H20.9997H20.9954H20.991H20.9866H20.9823H20.9779H20.9735H20.9692H20.9648H20.9604H20.9561H20.9517H20.9473H20.9429H20.9386H20.9342H20.9298H20.9255H20.9211H20.9167H20.9124H20.908H20.9036H20.8993H20.8949H20.8905H20.8861H20.8818H20.8774H20.873H20.8687H20.8643H20.8599H20.8556H20.8512H20.8468H20.8425H20.8381H20.8337H20.8293H20.825H20.8206H20.8162H20.8119H20.8075H20.8031H20.7988H20.7944H20.79H20.7856H20.7813H20.7769H20.7725H20.7682H20.7638H20.7594H20.7551H20.7507H20.7463H20.742H20.7376H20.7332H20.7288H20.7245H20.7201H20.7157H20.7114H20.707H20.7026H20.6983H20.6939H20.6895H20.6852H20.6808H20.6764H20.672H20.6677H20.6633H20.6589H20.6546H20.6502H20.6458H20.6415H20.6371H20.6327H20.6283H20.624H20.6196H20.6152H20.6109H20.6065H20.6021H20.5978H20.5934H20.589H20.5847H20.5803H20.5759H20.5715H20.5672H20.5628H20.5584H20.5541H20.5497H20.5453H20.541H20.5366H20.5322H20.5279H20.5235H20.5191H20.5147H20.5104H20.506H20.5016H20.4973H20.4929H20.4885H20.4842H20.4798H20.4754H20.471H20.4667H20.4623H20.4579H20.4536H20.4492H20.4448H20.4405H20.4361H20.4317H20.4274H20.423H20.4186H20.4142H20.4099H20.4055H20.4011H20.3968H20.3924H20.388H20.3837H20.3793H20.3749H20.3705H20.3662H20.3618H20.3574H20.3531H20.3487H20.3443H20.34H20.3356H20.3312H20.3269H20.3225H20.3181H20.3137H20.3094H20.305H20.3006H20.2963H20.2919H20.2875H20.2832H20.2788H20.2744H20.2701H20.2657H20.2613H20.2569H20.2526H20.2482H20.2438H20.2395H20.2351H20.2307H20.2264H20.222H20.2176H20.2132H20.2089H20.2045H20.2001H20.1958H20.1914H20.187H20.1827H20.1783H20.1739H20.1696H20.1652H20.1608H20.1564H20.1521H20.1477H20.1433H20.139H20.1346H20.1302H20.1259H20.1215H20.1171H20.1127H20.1084H20.104H20.0996H20.0953H20.0909H20.0865H20.0822H20.0778H20.0734H20.0691H20.0647H20.0603H20.0559H20.0516H20.0472H20.0428H20.0385H20.0341H20.0297H20.0254H20.021H20.0166H20.0122H20.0079H20.0035H19.9991H19.9948H19.9904H19.986H19.9817H19.9773H19.9729H19.9686H19.9642H19.9598H19.9554H19.9511H19.9467H19.9423H19.938H19.9336H19.9292H19.9249H19.9205H19.9161H19.9117H19.9074H19.903H19.8986H19.8943H19.8899H19.8855H19.8812H19.8768H19.8724H19.8681H19.8637H19.8593H19.8549H19.8506H19.8462H19.8418H19.8375H19.8331H19.8287H19.8244H19.82H19.8156H19.8112H19.8069H19.8025H19.7981H19.7938H19.7894H19.785H19.7807H19.7763H19.7719H19.7676H19.7632H19.7588H19.7544H19.7501H19.7457H19.7413H19.737H19.7326H19.7282H19.7239H19.7195H19.7151H19.7107H19.7064H19.702H19.6976H19.6933H19.6889H19.6845H19.6802H19.6758H19.6714H19.667H19.6627H19.6583H19.6539H19.6496H19.6452H19.6408H19.6365H19.6321H19.6277H19.6234H19.619H19.6146H19.6102H19.6059H19.6015H19.5971H19.5928H19.5884H19.584H19.5797H19.5753H19.5709H19.5665H19.5622H19.5578H19.5534H19.5491H19.5447H19.5403H19.536H19.5316H19.5272H19.5229H19.5185H19.5141H19.5097H19.5054H19.501H19.4966H19.4923H19.4879H19.4835H19.4792H19.4748H19.4704H19.466H19.4617H19.4573H19.4529H19.4486H19.4442H19.4398H19.4355H19.4311H19.4267H19.4223H19.418H19.4136H19.4092H19.4049H19.4005H19.3961H19.3918H19.3874H19.383H19.3787H19.3743H19.3699H19.3655H19.3612H19.3568H19.3524H19.3481H19.3437H19.3393L19.3352 20.0344L19.335 19.9844M20.8703 15.7461H20.8203M20.8203 15.7461V19.2182C20.833 19.2282 20.8481 19.2268 20.863 19.2255C20.8682 19.225 20.8733 19.2246 20.8783 19.2246H21.5737C21.7957 19.2246 21.961 19.3881 21.9606 19.6053C21.9603 19.8225 21.7948 19.9844 21.5721 19.9844H19.335M20.8203 15.7461L19.3147 14.9366C19.0962 14.9366 18.9316 15.1014 18.9316 15.3163M20.8203 15.7461L20.024 15.7463M19.335 19.9844C19.2529 19.9848 19.1731 19.9572 19.108 19.906C19.043 19.8548 18.9963 19.7829 18.9754 19.7016C18.9544 19.6202 18.9604 19.534 18.9924 19.4566C19.0244 19.3791 19.0806 19.3147 19.1521 19.2736C19.2113 19.24 19.2781 19.2231 19.3457 19.2245M19.335 19.9844V20.0344H19.3351C19.2417 20.0348 19.151 20.0034 19.0771 19.9453C19.0033 19.8872 18.9505 19.8058 18.9269 19.714C18.9033 19.6222 18.9101 19.525 18.9462 19.4375C18.9824 19.35 19.0459 19.277 19.1272 19.2302L19.1275 19.2301C19.1943 19.1922 19.2698 19.173 19.3463 19.1745M19.3457 19.2245C19.4927 19.2249 19.6397 19.2248 19.7867 19.2246C19.8603 19.2245 19.9339 19.2245 20.0074 19.2245L20.024 19.2247V19.1746M19.3457 19.2245L19.3459 19.1745C19.346 19.1745 19.3462 19.1745 19.3463 19.1745M19.3457 19.2245L19.3468 19.1745C19.3466 19.1745 19.3464 19.1745 19.3463 19.1745M20.024 19.1746L20.074 19.1753V15.7047M20.024 19.1746V15.7463M20.024 19.1746L20.008 19.1745H20.0074C19.9337 19.1745 19.8601 19.1745 19.7866 19.1746C19.6397 19.1748 19.493 19.1749 19.3463 19.1745M20.074 15.7047C20.0596 15.6934 20.0439 15.6946 20.0286 15.6959C20.0236 15.6963 20.0187 15.6967 20.0139 15.6966H19.3186C19.0963 15.6966 18.9313 15.5337 18.9316 15.3163M20.074 15.7047H20.024V15.7463M20.074 15.7047L20.043 15.7439C20.0435 15.7444 20.0445 15.7449 20.0454 15.7451C20.0456 15.7452 20.0457 15.7452 20.0457 15.7452C20.0457 15.7452 20.0451 15.7451 20.0436 15.7451C20.0412 15.7451 20.0383 15.7452 20.033 15.7457L20.0321 15.7457C20.0299 15.7459 20.0271 15.7462 20.024 15.7463M18.9316 15.3163H18.8816C18.8816 15.0735 19.0688 14.8866 19.3146 14.8866M18.9316 15.3163L18.8816 15.3162C18.8813 15.5621 19.0695 15.7466 19.3186 15.7466H19.3199H19.3213H19.3227H19.324H19.3254H19.3267H19.3281H19.3294H19.3308H19.3322H19.3335H19.3349H19.3362H19.3376H19.339H19.3403H19.3417H19.343H19.3444H19.3457H19.3471H19.3485H19.3498H19.3512H19.3525H19.3539H19.3553H19.3566H19.358H19.3593H19.3607H19.362H19.3634H19.3648H19.3661H19.3675H19.3688H19.3702H19.3716H19.3729H19.3743H19.3756H19.377H19.3783H19.3797H19.3811H19.3824H19.3838H19.3851H19.3865H19.3879H19.3892H19.3906H19.3919H19.3933H19.3946H19.396H19.3974H19.3987H19.4001H19.4014H19.4028H19.4042H19.4055H19.4069H19.4082H19.4096H19.4109H19.4123H19.4137H19.415H19.4164H19.4177H19.4191H19.4205H19.4218H19.4232H19.4245H19.4259H19.4272H19.4286H19.43H19.4313H19.4327H19.434H19.4354H19.4368H19.4381H19.4395H19.4408H19.4422H19.4435H19.4449H19.4463H19.4476H19.449H19.4503H19.4517H19.4531H19.4544H19.4558H19.4571H19.4585H19.4598H19.4612H19.4626H19.4639H19.4653H19.4666H19.468H19.4694H19.4707H19.4721H19.4734H19.4748H19.4761H19.4775H19.4789H19.4802H19.4816H19.4829H19.4843H19.4857H19.487H19.4884H19.4897H19.4911H19.4924H19.4938H19.4952H19.4965H19.4979H19.4992H19.5006H19.502H19.5033H19.5047H19.506H19.5074H19.5087H19.5101H19.5115H19.5128H19.5142H19.5155H19.5169H19.5183H19.5196H19.521H19.5223H19.5237H19.525H19.5264H19.5278H19.5291H19.5305H19.5318H19.5332H19.5346H19.5359H19.5373H19.5386H19.54H19.5413H19.5427H19.5441H19.5454H19.5468H19.5481H19.5495H19.5509H19.5522H19.5536H19.5549H19.5563H19.5576H19.559H19.5604H19.5617H19.5631H19.5644H19.5658H19.5672H19.5685H19.5699H19.5712H19.5726H19.5739H19.5753H19.5767H19.578H19.5794H19.5807H19.5821H19.5835H19.5848H19.5862H19.5875H19.5889H19.5902H19.5916H19.593H19.5943H19.5957H19.597H19.5984H19.5998H19.6011H19.6025H19.6038H19.6052H19.6065H19.6079H19.6093H19.6106H19.612H19.6133H19.6147H19.6161H19.6174H19.6188H19.6201H19.6215H19.6228H19.6242H19.6256H19.6269H19.6283H19.6296H19.631H19.6324H19.6337H19.6351H19.6364H19.6378H19.6391H19.6405H19.6419H19.6432H19.6446H19.6459H19.6473H19.6486H19.65H19.6514H19.6527H19.6541H19.6554H19.6568H19.6582H19.6595H19.6609H19.6622H19.6636H19.6649H19.6663H19.6677H19.669H19.6704H19.6717H19.6731H19.6745H19.6758H19.6772H19.6785H19.6799H19.6812H19.6826H19.684H19.6853H19.6867H19.688H19.6894H19.6908H19.6921H19.6935H19.6948H19.6962H19.6975H19.6989H19.7003H19.7016H19.703H19.7043H19.7057H19.7071H19.7084H19.7098H19.7111H19.7125H19.7138H19.7152H19.7166H19.7179H19.7193H19.7206H19.722H19.7233H19.7247H19.7261H19.7274H19.7288H19.7301H19.7315H19.7329H19.7342H19.7356H19.7369H19.7383H19.7396H19.741H19.7424H19.7437H19.7451H19.7464H19.7478H19.7492H19.7505H19.7519H19.7532H19.7546H19.7559H19.7573H19.7587H19.76H19.7614H19.7627H19.7641H19.7654H19.7668H19.7682H19.7695H19.7709H19.7722H19.7736H19.775H19.7763H19.7777H19.779H19.7804H19.7817H19.7831H19.7845H19.7858H19.7872H19.7885H19.7899H19.7913H19.7926H19.794H19.7953H19.7967H19.798H19.7994H19.8008H19.8021H19.8035H19.8048H19.8062H19.8075H19.8089H19.8103H19.8116H19.813H19.8143H19.8157H19.8171H19.8184H19.8198H19.8211H19.8225H19.8238H19.8252H19.8266H19.8279H19.8293H19.8306H19.832H19.8334H19.8347H19.8361H19.8374H19.8388H19.8401H19.8415H19.8429H19.8442H19.8456H19.8469H19.8483H19.8496H19.851H19.8524H19.8537H19.8551H19.8564H19.8578H19.8592H19.8605H19.8619H19.8632H19.8646H19.8659H19.8673H19.8687H19.87H19.8714H19.8727H19.8741H19.8754H19.8768H19.8782H19.8795H19.8809H19.8822H19.8836H19.885H19.8863H19.8877H19.889H19.8904H19.8917H19.8931H19.8945H19.8958H19.8972H19.8985H19.8999H19.9012H19.9026H19.904H19.9053H19.9067H19.908H19.9094H19.9108H19.9121H19.9135H19.9148H19.9162H19.9175H19.9189H19.9203H19.9216H19.923H19.9243H19.9257H19.927H19.9284H19.9298H19.9311H19.9325H19.9338H19.9352H19.9366H19.9379H19.9393H19.9406H19.942H19.9433H19.9447H19.9461H19.9474H19.9488H19.9501H19.9515H19.9528H19.9542H19.9556H19.9569H19.9583H19.9596H19.961H19.9624H19.9637H19.9651H19.9664H19.9678H19.9691H19.9705H19.9719H19.9732H19.9746H19.9759H19.9773H19.9786H19.98H19.9814H19.9827H19.9841H19.9854H19.9868H19.9882H19.9895H19.9909H19.9922H19.9936H19.9949H19.9963H19.9977H19.999H20.0004H20.0017H20.0031H20.0044H20.0058H20.0072H20.0085H20.0099H20.0112H20.0126L19.3146 14.8866" fill="white" stroke="white" stroke-width="0.1"/>
</svg>
