<svg width="32" height="32" viewBox="0 0 32 32" fill="none" xmlns="http://www.w3.org/2000/svg">
<path d="M14.4902 6.23006L9.50016 8.11006C8.35016 8.54006 7.41016 9.90006 7.41016 11.1201V18.5501C7.41016 19.7301 8.19016 21.2801 9.14016 21.9901L13.4402 25.2001C14.8502 26.2601 17.1702 26.2601 18.5802 25.2001L22.8802 21.9901C23.8302 21.2801 24.6102 19.7301 24.6102 18.5501V11.1201C24.6102 9.89006 23.6702 8.53006 22.5202 8.10006L17.5302 6.23006C16.6802 5.92006 15.3202 5.92006 14.4902 6.23006Z" stroke="white" stroke-width="1.5" stroke-linecap="round" stroke-linejoin="round"/>
<path d="M16 16.5C16.5304 16.5 17.0391 16.2893 17.4142 15.9142C17.7893 15.5391 18 15.0304 18 14.5C18 13.9696 17.7893 13.4609 17.4142 13.0858C17.0391 12.7107 16.5304 12.5 16 12.5C15.4696 12.5 14.9609 12.7107 14.5858 13.0858C14.2107 13.4609 14 13.9696 14 14.5C14 15.0304 14.2107 15.5391 14.5858 15.9142C14.9609 16.2893 15.4696 16.5 16 16.5ZM16 16.5V19.5" stroke="white" stroke-width="1.5" stroke-miterlimit="10" stroke-linecap="round" stroke-linejoin="round"/>
</svg>
